<svg width="570" height="406" viewBox="0 0 570 406" fill="none" xmlns="http://www.w3.org/2000/svg">
<g clip-path="url(#clip0_210_4191)">
<path d="M521.115 403.838L520.525 403.962C514.851 377.003 495.035 358.721 494.836 358.54L495.241 358.094C495.442 358.277 515.399 376.683 521.115 403.838Z" fill="white"/>
<path d="M133.876 282.197C129.504 282.183 125.15 281.619 120.918 280.521L120.084 280.29L119.31 279.902C91.3334 265.876 67.7311 247.348 49.1586 224.834C33.7845 206.088 21.7981 184.804 13.7385 161.939C4.10044 134.564 -0.536405 105.678 0.0493046 76.6618C0.0611231 76.0528 0.0711253 75.5825 0.0711253 75.2585C0.0711253 61.1534 7.90053 48.7772 20.0174 43.7285C29.2911 39.8644 113.492 5.27993 119.575 2.78111C131.032 -2.9597 143.255 1.83191 145.211 2.66983C149.599 4.46363 227.437 36.3004 244.258 44.31C261.593 52.565 266.218 67.3948 266.218 74.8559C266.218 108.635 260.368 140.204 248.83 168.686C239.512 191.74 226.306 213.024 209.786 231.61C177.913 267.478 146.032 280.193 145.724 280.305C141.914 281.616 137.905 282.257 133.876 282.197ZM126.379 263.626C129.143 264.245 135.506 265.175 139.654 263.662C144.923 261.74 171.607 247.903 196.543 219.842C230.995 181.071 248.477 132.332 248.502 74.9805C248.441 73.8186 247.615 65.5313 236.641 60.3056C220.146 52.451 139.24 19.3685 138.425 19.0351L138.201 18.9403C136.506 18.2298 131.11 16.7333 127.39 18.6824L126.645 19.0296C125.744 19.4 36.3639 56.1102 26.8315 60.0819C20.1633 62.8603 17.7874 69.7434 17.7874 75.2585C17.7874 75.6616 17.777 76.2478 17.7623 77.0055C17.0004 116.248 26.0814 212.811 126.379 263.626Z" fill="#DE0B0B"/>
<path d="M123.285 10.8354C123.285 10.8354 33.0924 47.8786 23.429 51.9051C13.7655 55.9315 8.93378 65.5949 8.93378 75.2584C8.93378 84.9219 1.68621 211.017 123.285 271.983C123.285 271.983 134.321 275.037 142.694 271.983C151.067 268.93 257.365 217.392 257.365 74.8557C257.365 74.8557 257.365 60.3606 240.454 52.3077C223.543 44.2548 141.781 10.8354 141.781 10.8354C141.781 10.8354 131.74 6.40634 123.285 10.8354Z" fill="#F5F5F5"/>
<path opacity="0.1" d="M132.944 39.8259V237.438C132.944 237.438 41.9461 193.636 42.7514 78.4797L132.944 39.8259Z" fill="#141414"/>
<path d="M134.128 181.853L105.141 144.581L121.998 131.47L135.723 149.118L182.09 100.171L197.595 114.861L134.128 181.853Z" fill="#DE0B0B"/>
<path d="M568.733 406H303.859C303.675 406 303.498 405.927 303.368 405.796C303.237 405.666 303.164 405.489 303.164 405.305C303.164 405.12 303.237 404.944 303.368 404.813C303.498 404.683 303.675 404.61 303.859 404.61H568.733C568.917 404.61 569.094 404.683 569.224 404.813C569.355 404.944 569.428 405.12 569.428 405.305C569.428 405.489 569.355 405.666 569.224 405.796C569.094 405.927 568.917 406 568.733 406Z" fill="#CACACA"/>
<path d="M380.424 395.042L391.175 395.041L396.291 353.57L380.422 353.571L380.424 395.042Z" fill="#FFB8B8"/>
<path d="M377.68 391.531L398.854 391.53H398.855C402.434 391.53 405.866 392.952 408.396 395.483C410.927 398.013 412.349 401.445 412.349 405.024V405.462L377.68 405.464L377.68 391.531Z" fill="#141414"/>
<path d="M416.576 395.042L427.328 395.041L432.443 353.57L416.574 353.571L416.576 395.042Z" fill="#FFB8B8"/>
<path d="M413.836 391.531L435.01 391.53H435.011C438.59 391.53 442.022 392.952 444.552 395.483C447.083 398.013 448.505 401.445 448.505 405.024V405.462L413.837 405.464L413.836 391.531Z" fill="#141414"/>
<path d="M397.327 249.405L399.906 380.973L379.042 379.679L364.568 295.877L359.996 238.739L397.327 249.405Z" fill="#141414"/>
<path d="M433.132 227.312L436.056 383.058L411.724 382.363L406.468 289.782L397.326 256.262L359.996 238.74L366.091 196.839L420.943 196.077L433.132 227.312Z" fill="#141414"/>
<path d="M391.178 87.8963C401.482 87.8963 409.836 79.5428 409.836 69.2382C409.836 58.9336 401.482 50.5801 391.178 50.5801C380.873 50.5801 372.52 58.9336 372.52 69.2382C372.52 79.5428 380.873 87.8963 391.178 87.8963Z" fill="#FFB8B8"/>
<path d="M406.655 95.7561L409.513 100.086L417.132 121.417L411.037 204.456L375.23 205.219L370.66 109.989L380.235 98.0204L406.655 95.7561Z" fill="#CCCCCC"/>
<path d="M356.182 112.275L350.088 111.513C350.088 111.513 348.564 112.275 347.802 117.608C347.04 122.941 337.898 170.174 337.898 170.174L350.088 228.074L363.801 209.79L355.421 177.793L363.801 145.796L356.182 112.275Z" fill="#DE0B0B"/>
<path d="M433.892 111.514H438.463L449.891 173.222L439.225 221.217L428.559 203.695L431.606 184.649L430.083 167.889L424.75 157.985L433.892 111.514Z" fill="#DE0B0B"/>
<path d="M402.205 69.2381L398.812 68.39C398.812 68.39 396.268 53.9723 390.331 55.6685C384.395 57.3647 369.129 59.0609 369.129 52.2761C369.129 45.4914 383.547 39.5547 392.027 40.4028C400.508 41.2509 411.34 44.0644 414.078 56.5166C418.467 76.478 405.022 81.52 405.022 81.52L405.246 80.7932C405.867 78.7752 405.911 76.6237 405.374 74.5817C404.837 72.5398 403.739 70.6888 402.205 69.2381Z" fill="#141414"/>
<path d="M350.855 111.513L375.234 101.609L380.948 97.4193L398.089 173.222L406.088 95.1338L437.705 111.513L427.039 163.318L425.515 183.126L430.086 199.124C430.086 199.124 446.085 210.552 440.752 222.741C435.419 234.93 429.324 235.692 429.324 235.692C429.324 235.692 403.422 211.313 401.898 205.219C400.375 199.124 398.089 188.458 398.089 188.458C398.089 188.458 385.138 237.216 369.901 236.454C354.665 235.692 354.665 219.694 354.665 219.694L358.474 202.933L364.569 185.411L361.521 156.461L350.855 111.513Z" fill="#DE0B0B"/>
</g>
<defs>
<clipPath id="clip0_210_4191">
<rect width="569.422" height="406" fill="white"/>
</clipPath>
</defs>
</svg>
